<mxfile host="app.diagrams.net" agent="Mozilla/5.0 (X11; Linux x86_64) AppleWebKit/537.36 (KHTML, like Gecko) Chrome/127.0.0.0 Safari/537.36" version="24.7.6">
  <diagram id="C5RBs43oDa-KdzZeNtuy" name="Page-1">
    <mxGraphModel dx="1706" dy="1076" grid="1" gridSize="10" guides="1" tooltips="1" connect="1" arrows="1" fold="1" page="1" pageScale="1" pageWidth="1500" pageHeight="2000" math="0" shadow="0">
      <root>
        <mxCell id="WIyWlLk6GJQsqaUBKTNV-0" />
        <mxCell id="WIyWlLk6GJQsqaUBKTNV-1" parent="WIyWlLk6GJQsqaUBKTNV-0" />
        <mxCell id="iCJWKHJC1zr3cfGlK3Lu-2" style="edgeStyle=orthogonalEdgeStyle;rounded=0;orthogonalLoop=1;jettySize=auto;html=1;" parent="WIyWlLk6GJQsqaUBKTNV-1" source="iCJWKHJC1zr3cfGlK3Lu-0" target="iCJWKHJC1zr3cfGlK3Lu-1" edge="1">
          <mxGeometry relative="1" as="geometry" />
        </mxCell>
        <mxCell id="iCJWKHJC1zr3cfGlK3Lu-0" value="Open app" style="rounded=1;whiteSpace=wrap;html=1;fontSize=12;glass=0;strokeWidth=1;shadow=0;fillColor=#e1d5e7;strokeColor=#9673a6;" parent="WIyWlLk6GJQsqaUBKTNV-1" vertex="1">
          <mxGeometry x="120" y="1165" width="120" height="40" as="geometry" />
        </mxCell>
        <mxCell id="iCJWKHJC1zr3cfGlK3Lu-10" style="edgeStyle=orthogonalEdgeStyle;rounded=0;orthogonalLoop=1;jettySize=auto;html=1;entryX=0.5;entryY=1;entryDx=0;entryDy=0;" parent="WIyWlLk6GJQsqaUBKTNV-1" source="iCJWKHJC1zr3cfGlK3Lu-1" target="iCJWKHJC1zr3cfGlK3Lu-9" edge="1">
          <mxGeometry relative="1" as="geometry" />
        </mxCell>
        <mxCell id="iCJWKHJC1zr3cfGlK3Lu-14" value="No" style="edgeLabel;html=1;align=center;verticalAlign=middle;resizable=0;points=[];" parent="iCJWKHJC1zr3cfGlK3Lu-10" vertex="1" connectable="0">
          <mxGeometry x="-0.1826" y="2" relative="1" as="geometry">
            <mxPoint y="1" as="offset" />
          </mxGeometry>
        </mxCell>
        <mxCell id="hV6LNWQUlWXEsu78wSo5-0" style="edgeStyle=orthogonalEdgeStyle;rounded=0;orthogonalLoop=1;jettySize=auto;html=1;" edge="1" parent="WIyWlLk6GJQsqaUBKTNV-1" source="iCJWKHJC1zr3cfGlK3Lu-1" target="iCJWKHJC1zr3cfGlK3Lu-30">
          <mxGeometry relative="1" as="geometry" />
        </mxCell>
        <mxCell id="hV6LNWQUlWXEsu78wSo5-13" value="Yes" style="edgeLabel;html=1;align=center;verticalAlign=middle;resizable=0;points=[];" vertex="1" connectable="0" parent="hV6LNWQUlWXEsu78wSo5-0">
          <mxGeometry x="-0.0694" y="1" relative="1" as="geometry">
            <mxPoint as="offset" />
          </mxGeometry>
        </mxCell>
        <mxCell id="iCJWKHJC1zr3cfGlK3Lu-1" value="Token OIDC&lt;br&gt;present ?" style="rhombus;whiteSpace=wrap;html=1;shadow=0;fontFamily=Helvetica;fontSize=12;align=center;strokeWidth=1;spacing=6;spacingTop=-4;fillColor=#fff2cc;strokeColor=#d6b656;" parent="WIyWlLk6GJQsqaUBKTNV-1" vertex="1">
          <mxGeometry x="300" y="1127.5" width="130" height="115" as="geometry" />
        </mxCell>
        <mxCell id="iCJWKHJC1zr3cfGlK3Lu-63" style="edgeStyle=orthogonalEdgeStyle;rounded=0;orthogonalLoop=1;jettySize=auto;html=1;entryX=0.5;entryY=1;entryDx=0;entryDy=0;" parent="WIyWlLk6GJQsqaUBKTNV-1" source="iCJWKHJC1zr3cfGlK3Lu-9" target="iCJWKHJC1zr3cfGlK3Lu-21" edge="1">
          <mxGeometry relative="1" as="geometry" />
        </mxCell>
        <mxCell id="iCJWKHJC1zr3cfGlK3Lu-9" value="Choose&lt;br&gt;Pod Provider&lt;br&gt;Screen" style="rounded=0;whiteSpace=wrap;html=1;fillColor=#d5e8d4;strokeColor=#82b366;fontStyle=0" parent="WIyWlLk6GJQsqaUBKTNV-1" vertex="1">
          <mxGeometry x="310" y="950" width="110" height="120" as="geometry" />
        </mxCell>
        <mxCell id="iCJWKHJC1zr3cfGlK3Lu-19" style="edgeStyle=orthogonalEdgeStyle;rounded=0;orthogonalLoop=1;jettySize=auto;html=1;" parent="WIyWlLk6GJQsqaUBKTNV-1" source="iCJWKHJC1zr3cfGlK3Lu-15" target="iCJWKHJC1zr3cfGlK3Lu-18" edge="1">
          <mxGeometry relative="1" as="geometry" />
        </mxCell>
        <mxCell id="iCJWKHJC1zr3cfGlK3Lu-20" value="No" style="edgeLabel;html=1;align=center;verticalAlign=middle;resizable=0;points=[];" parent="iCJWKHJC1zr3cfGlK3Lu-19" vertex="1" connectable="0">
          <mxGeometry x="-0.16" y="2" relative="1" as="geometry">
            <mxPoint x="13" y="2" as="offset" />
          </mxGeometry>
        </mxCell>
        <mxCell id="hV6LNWQUlWXEsu78wSo5-1" style="edgeStyle=orthogonalEdgeStyle;rounded=0;orthogonalLoop=1;jettySize=auto;html=1;" edge="1" parent="WIyWlLk6GJQsqaUBKTNV-1" source="iCJWKHJC1zr3cfGlK3Lu-15" target="iCJWKHJC1zr3cfGlK3Lu-51">
          <mxGeometry relative="1" as="geometry" />
        </mxCell>
        <mxCell id="hV6LNWQUlWXEsu78wSo5-9" value="Yes" style="edgeLabel;html=1;align=center;verticalAlign=middle;resizable=0;points=[];" vertex="1" connectable="0" parent="hV6LNWQUlWXEsu78wSo5-1">
          <mxGeometry x="-0.2396" relative="1" as="geometry">
            <mxPoint as="offset" />
          </mxGeometry>
        </mxCell>
        <mxCell id="iCJWKHJC1zr3cfGlK3Lu-15" value="Access Needs Changed ?" style="rhombus;whiteSpace=wrap;html=1;shadow=0;fontFamily=Helvetica;fontSize=12;align=center;strokeWidth=1;spacing=6;spacingTop=-4;fillColor=#fff2cc;strokeColor=#d6b656;" parent="WIyWlLk6GJQsqaUBKTNV-1" vertex="1">
          <mxGeometry x="750" y="1250" width="130" height="115" as="geometry" />
        </mxCell>
        <mxCell id="iCJWKHJC1zr3cfGlK3Lu-18" value="Access app" style="rounded=1;whiteSpace=wrap;html=1;fontSize=12;glass=0;strokeWidth=1;shadow=0;fillColor=#e1d5e7;strokeColor=#9673a6;" parent="WIyWlLk6GJQsqaUBKTNV-1" vertex="1">
          <mxGeometry x="1110" y="1287.5" width="120" height="40" as="geometry" />
        </mxCell>
        <mxCell id="iCJWKHJC1zr3cfGlK3Lu-24" style="edgeStyle=orthogonalEdgeStyle;rounded=0;orthogonalLoop=1;jettySize=auto;html=1;entryX=0.5;entryY=1;entryDx=0;entryDy=0;fontStyle=0" parent="WIyWlLk6GJQsqaUBKTNV-1" source="iCJWKHJC1zr3cfGlK3Lu-21" target="iCJWKHJC1zr3cfGlK3Lu-23" edge="1">
          <mxGeometry relative="1" as="geometry" />
        </mxCell>
        <mxCell id="iCJWKHJC1zr3cfGlK3Lu-33" value="No" style="edgeLabel;html=1;align=center;verticalAlign=middle;resizable=0;points=[];fontStyle=0" parent="iCJWKHJC1zr3cfGlK3Lu-24" vertex="1" connectable="0">
          <mxGeometry x="-0.0741" y="1" relative="1" as="geometry">
            <mxPoint as="offset" />
          </mxGeometry>
        </mxCell>
        <mxCell id="iCJWKHJC1zr3cfGlK3Lu-31" style="edgeStyle=orthogonalEdgeStyle;rounded=0;orthogonalLoop=1;jettySize=auto;html=1;fontStyle=0" parent="WIyWlLk6GJQsqaUBKTNV-1" source="iCJWKHJC1zr3cfGlK3Lu-21" target="iCJWKHJC1zr3cfGlK3Lu-30" edge="1">
          <mxGeometry relative="1" as="geometry" />
        </mxCell>
        <mxCell id="hV6LNWQUlWXEsu78wSo5-3" value="Yes" style="edgeLabel;html=1;align=center;verticalAlign=middle;resizable=0;points=[];" vertex="1" connectable="0" parent="iCJWKHJC1zr3cfGlK3Lu-31">
          <mxGeometry x="-0.7523" y="1" relative="1" as="geometry">
            <mxPoint as="offset" />
          </mxGeometry>
        </mxCell>
        <mxCell id="iCJWKHJC1zr3cfGlK3Lu-21" value="Local Token&lt;br&gt;present ?" style="rhombus;whiteSpace=wrap;html=1;shadow=0;fontFamily=Helvetica;fontSize=12;align=center;strokeWidth=1;spacing=6;spacingTop=-4;fillColor=#fff2cc;strokeColor=#d6b656;fontStyle=0" parent="WIyWlLk6GJQsqaUBKTNV-1" vertex="1">
          <mxGeometry x="300" y="780" width="130" height="115" as="geometry" />
        </mxCell>
        <mxCell id="iCJWKHJC1zr3cfGlK3Lu-26" style="edgeStyle=orthogonalEdgeStyle;rounded=0;orthogonalLoop=1;jettySize=auto;html=1;" parent="WIyWlLk6GJQsqaUBKTNV-1" source="iCJWKHJC1zr3cfGlK3Lu-23" target="iCJWKHJC1zr3cfGlK3Lu-25" edge="1">
          <mxGeometry relative="1" as="geometry" />
        </mxCell>
        <mxCell id="iCJWKHJC1zr3cfGlK3Lu-23" value="Login / Signup Screen" style="rounded=0;whiteSpace=wrap;html=1;fillColor=#d5e8d4;strokeColor=#82b366;" parent="WIyWlLk6GJQsqaUBKTNV-1" vertex="1">
          <mxGeometry x="310" y="600" width="110" height="120" as="geometry" />
        </mxCell>
        <mxCell id="iCJWKHJC1zr3cfGlK3Lu-28" style="edgeStyle=orthogonalEdgeStyle;rounded=0;orthogonalLoop=1;jettySize=auto;html=1;" parent="WIyWlLk6GJQsqaUBKTNV-1" source="iCJWKHJC1zr3cfGlK3Lu-25" target="iCJWKHJC1zr3cfGlK3Lu-27" edge="1">
          <mxGeometry relative="1" as="geometry" />
        </mxCell>
        <mxCell id="iCJWKHJC1zr3cfGlK3Lu-29" value="Yes" style="edgeLabel;html=1;align=center;verticalAlign=middle;resizable=0;points=[];" parent="iCJWKHJC1zr3cfGlK3Lu-28" vertex="1" connectable="0">
          <mxGeometry x="-0.2444" y="1" relative="1" as="geometry">
            <mxPoint as="offset" />
          </mxGeometry>
        </mxCell>
        <mxCell id="iCJWKHJC1zr3cfGlK3Lu-44" style="edgeStyle=orthogonalEdgeStyle;rounded=0;orthogonalLoop=1;jettySize=auto;html=1;entryX=0.5;entryY=0;entryDx=0;entryDy=0;" parent="WIyWlLk6GJQsqaUBKTNV-1" source="iCJWKHJC1zr3cfGlK3Lu-25" target="iCJWKHJC1zr3cfGlK3Lu-30" edge="1">
          <mxGeometry relative="1" as="geometry" />
        </mxCell>
        <mxCell id="iCJWKHJC1zr3cfGlK3Lu-45" value="No" style="edgeLabel;html=1;align=center;verticalAlign=middle;resizable=0;points=[];" parent="iCJWKHJC1zr3cfGlK3Lu-44" vertex="1" connectable="0">
          <mxGeometry x="-0.6927" y="3" relative="1" as="geometry">
            <mxPoint x="-56" y="3" as="offset" />
          </mxGeometry>
        </mxCell>
        <mxCell id="iCJWKHJC1zr3cfGlK3Lu-25" value="New&lt;br&gt;account ?" style="rhombus;whiteSpace=wrap;html=1;shadow=0;fontFamily=Helvetica;fontSize=12;align=center;strokeWidth=1;spacing=6;spacingTop=-4;fillColor=#fff2cc;strokeColor=#d6b656;fontStyle=0" parent="WIyWlLk6GJQsqaUBKTNV-1" vertex="1">
          <mxGeometry x="300" y="450" width="130" height="115" as="geometry" />
        </mxCell>
        <mxCell id="iCJWKHJC1zr3cfGlK3Lu-43" style="edgeStyle=orthogonalEdgeStyle;rounded=0;orthogonalLoop=1;jettySize=auto;html=1;" parent="WIyWlLk6GJQsqaUBKTNV-1" source="iCJWKHJC1zr3cfGlK3Lu-27" target="iCJWKHJC1zr3cfGlK3Lu-38" edge="1">
          <mxGeometry relative="1" as="geometry" />
        </mxCell>
        <mxCell id="iCJWKHJC1zr3cfGlK3Lu-27" value="Profile&lt;br&gt;Creation &lt;br&gt;Screen" style="rounded=0;whiteSpace=wrap;html=1;fillColor=#d5e8d4;strokeColor=#82b366;" parent="WIyWlLk6GJQsqaUBKTNV-1" vertex="1">
          <mxGeometry x="310" y="260" width="110" height="120" as="geometry" />
        </mxCell>
        <mxCell id="iCJWKHJC1zr3cfGlK3Lu-34" style="edgeStyle=orthogonalEdgeStyle;rounded=0;orthogonalLoop=1;jettySize=auto;html=1;" parent="WIyWlLk6GJQsqaUBKTNV-1" source="iCJWKHJC1zr3cfGlK3Lu-30" target="iCJWKHJC1zr3cfGlK3Lu-15" edge="1">
          <mxGeometry relative="1" as="geometry">
            <Array as="points">
              <mxPoint x="680" y="1185" />
              <mxPoint x="680" y="1308" />
            </Array>
          </mxGeometry>
        </mxCell>
        <mxCell id="iCJWKHJC1zr3cfGlK3Lu-35" value="Yes" style="edgeLabel;html=1;align=center;verticalAlign=middle;resizable=0;points=[];fontStyle=0" parent="iCJWKHJC1zr3cfGlK3Lu-34" vertex="1" connectable="0">
          <mxGeometry x="-0.1301" y="-1" relative="1" as="geometry">
            <mxPoint y="-1" as="offset" />
          </mxGeometry>
        </mxCell>
        <mxCell id="hV6LNWQUlWXEsu78wSo5-4" style="edgeStyle=orthogonalEdgeStyle;rounded=0;orthogonalLoop=1;jettySize=auto;html=1;entryX=0;entryY=0.5;entryDx=0;entryDy=0;" edge="1" parent="WIyWlLk6GJQsqaUBKTNV-1" source="iCJWKHJC1zr3cfGlK3Lu-30" target="iCJWKHJC1zr3cfGlK3Lu-46">
          <mxGeometry relative="1" as="geometry">
            <Array as="points">
              <mxPoint x="680" y="1185" />
              <mxPoint x="680" y="1067" />
            </Array>
          </mxGeometry>
        </mxCell>
        <mxCell id="hV6LNWQUlWXEsu78wSo5-6" value="No" style="edgeLabel;html=1;align=center;verticalAlign=middle;resizable=0;points=[];" vertex="1" connectable="0" parent="hV6LNWQUlWXEsu78wSo5-4">
          <mxGeometry x="-0.1841" relative="1" as="geometry">
            <mxPoint as="offset" />
          </mxGeometry>
        </mxCell>
        <mxCell id="iCJWKHJC1zr3cfGlK3Lu-30" value="App installed&lt;br&gt;on Pod ?" style="rhombus;whiteSpace=wrap;html=1;shadow=0;fontFamily=Helvetica;fontSize=12;align=center;strokeWidth=1;spacing=6;spacingTop=-4;fillColor=#fff2cc;strokeColor=#d6b656;fontStyle=0" parent="WIyWlLk6GJQsqaUBKTNV-1" vertex="1">
          <mxGeometry x="500" y="1127.5" width="130" height="115" as="geometry" />
        </mxCell>
        <mxCell id="iCJWKHJC1zr3cfGlK3Lu-42" style="edgeStyle=orthogonalEdgeStyle;rounded=0;orthogonalLoop=1;jettySize=auto;html=1;" parent="WIyWlLk6GJQsqaUBKTNV-1" source="iCJWKHJC1zr3cfGlK3Lu-38" target="iCJWKHJC1zr3cfGlK3Lu-30" edge="1">
          <mxGeometry relative="1" as="geometry" />
        </mxCell>
        <mxCell id="iCJWKHJC1zr3cfGlK3Lu-38" value="Background&lt;br&gt;Creation" style="ellipse;shape=cloud;whiteSpace=wrap;html=1;fillColor=#dae8fc;strokeColor=#6c8ebf;" parent="WIyWlLk6GJQsqaUBKTNV-1" vertex="1">
          <mxGeometry x="490" y="265" width="150" height="110" as="geometry" />
        </mxCell>
        <mxCell id="iCJWKHJC1zr3cfGlK3Lu-49" style="edgeStyle=orthogonalEdgeStyle;rounded=0;orthogonalLoop=1;jettySize=auto;html=1;" parent="WIyWlLk6GJQsqaUBKTNV-1" source="iCJWKHJC1zr3cfGlK3Lu-46" target="iCJWKHJC1zr3cfGlK3Lu-48" edge="1">
          <mxGeometry relative="1" as="geometry" />
        </mxCell>
        <mxCell id="hV6LNWQUlWXEsu78wSo5-11" value="Consent" style="edgeLabel;html=1;align=center;verticalAlign=middle;resizable=0;points=[];" vertex="1" connectable="0" parent="iCJWKHJC1zr3cfGlK3Lu-49">
          <mxGeometry x="0.0387" y="-5" relative="1" as="geometry">
            <mxPoint x="3" y="-5" as="offset" />
          </mxGeometry>
        </mxCell>
        <mxCell id="iCJWKHJC1zr3cfGlK3Lu-46" value="Authorization&lt;br&gt;Screen&lt;br&gt;(Install)" style="rounded=0;whiteSpace=wrap;html=1;fillColor=#d5e8d4;strokeColor=#82b366;" parent="WIyWlLk6GJQsqaUBKTNV-1" vertex="1">
          <mxGeometry x="760" y="1007.5" width="110" height="120" as="geometry" />
        </mxCell>
        <mxCell id="iCJWKHJC1zr3cfGlK3Lu-50" style="edgeStyle=orthogonalEdgeStyle;rounded=0;orthogonalLoop=1;jettySize=auto;html=1;entryX=0.5;entryY=0;entryDx=0;entryDy=0;" parent="WIyWlLk6GJQsqaUBKTNV-1" source="iCJWKHJC1zr3cfGlK3Lu-48" target="iCJWKHJC1zr3cfGlK3Lu-18" edge="1">
          <mxGeometry relative="1" as="geometry" />
        </mxCell>
        <mxCell id="iCJWKHJC1zr3cfGlK3Lu-48" value="Background&lt;br&gt;Installation" style="ellipse;shape=cloud;whiteSpace=wrap;html=1;fillColor=#dae8fc;strokeColor=#6c8ebf;" parent="WIyWlLk6GJQsqaUBKTNV-1" vertex="1">
          <mxGeometry x="1095" y="1012.5" width="150" height="110" as="geometry" />
        </mxCell>
        <mxCell id="iCJWKHJC1zr3cfGlK3Lu-56" style="edgeStyle=orthogonalEdgeStyle;rounded=0;orthogonalLoop=1;jettySize=auto;html=1;" parent="WIyWlLk6GJQsqaUBKTNV-1" source="iCJWKHJC1zr3cfGlK3Lu-51" target="iCJWKHJC1zr3cfGlK3Lu-55" edge="1">
          <mxGeometry relative="1" as="geometry" />
        </mxCell>
        <mxCell id="iCJWKHJC1zr3cfGlK3Lu-58" value="Yes" style="edgeLabel;html=1;align=center;verticalAlign=middle;resizable=0;points=[];" parent="iCJWKHJC1zr3cfGlK3Lu-56" vertex="1" connectable="0">
          <mxGeometry x="-0.2231" y="-1" relative="1" as="geometry">
            <mxPoint as="offset" />
          </mxGeometry>
        </mxCell>
        <mxCell id="iCJWKHJC1zr3cfGlK3Lu-51" value="Require&lt;br&gt;User&lt;br&gt;Consent ?" style="rhombus;whiteSpace=wrap;html=1;shadow=0;fontFamily=Helvetica;fontSize=12;align=center;strokeWidth=1;spacing=6;spacingTop=-4;fillColor=#fff2cc;strokeColor=#d6b656;" parent="WIyWlLk6GJQsqaUBKTNV-1" vertex="1">
          <mxGeometry x="750" y="1430" width="130" height="115" as="geometry" />
        </mxCell>
        <mxCell id="iCJWKHJC1zr3cfGlK3Lu-62" style="edgeStyle=orthogonalEdgeStyle;rounded=0;orthogonalLoop=1;jettySize=auto;html=1;entryX=0.5;entryY=1;entryDx=0;entryDy=0;" parent="WIyWlLk6GJQsqaUBKTNV-1" source="iCJWKHJC1zr3cfGlK3Lu-54" target="iCJWKHJC1zr3cfGlK3Lu-18" edge="1">
          <mxGeometry relative="1" as="geometry">
            <Array as="points">
              <mxPoint x="1170" y="1380" />
              <mxPoint x="1170" y="1380" />
            </Array>
          </mxGeometry>
        </mxCell>
        <mxCell id="iCJWKHJC1zr3cfGlK3Lu-54" value="Background&lt;br&gt;Upgrade" style="ellipse;shape=cloud;whiteSpace=wrap;html=1;fillColor=#dae8fc;strokeColor=#6c8ebf;" parent="WIyWlLk6GJQsqaUBKTNV-1" vertex="1">
          <mxGeometry x="1090" y="1430" width="150" height="110" as="geometry" />
        </mxCell>
        <mxCell id="iCJWKHJC1zr3cfGlK3Lu-55" value="Authorization&lt;br&gt;Screen&lt;br&gt;(Upgrade)" style="rounded=0;whiteSpace=wrap;html=1;fillColor=#d5e8d4;strokeColor=#82b366;" parent="WIyWlLk6GJQsqaUBKTNV-1" vertex="1">
          <mxGeometry x="760" y="1620" width="110" height="120" as="geometry" />
        </mxCell>
        <mxCell id="iCJWKHJC1zr3cfGlK3Lu-60" style="edgeStyle=orthogonalEdgeStyle;rounded=0;orthogonalLoop=1;jettySize=auto;html=1;exitX=1;exitY=0.5;exitDx=0;exitDy=0;entryX=0.08;entryY=0.514;entryDx=0;entryDy=0;entryPerimeter=0;" parent="WIyWlLk6GJQsqaUBKTNV-1" source="iCJWKHJC1zr3cfGlK3Lu-51" target="iCJWKHJC1zr3cfGlK3Lu-54" edge="1">
          <mxGeometry relative="1" as="geometry">
            <Array as="points">
              <mxPoint x="985" y="1488" />
            </Array>
          </mxGeometry>
        </mxCell>
        <mxCell id="iCJWKHJC1zr3cfGlK3Lu-61" value="No" style="edgeLabel;html=1;align=center;verticalAlign=middle;resizable=0;points=[];" parent="iCJWKHJC1zr3cfGlK3Lu-60" vertex="1" connectable="0">
          <mxGeometry x="-0.1429" relative="1" as="geometry">
            <mxPoint x="14" as="offset" />
          </mxGeometry>
        </mxCell>
        <mxCell id="hV6LNWQUlWXEsu78wSo5-8" style="edgeStyle=orthogonalEdgeStyle;rounded=0;orthogonalLoop=1;jettySize=auto;html=1;entryX=0.55;entryY=0.95;entryDx=0;entryDy=0;entryPerimeter=0;" edge="1" parent="WIyWlLk6GJQsqaUBKTNV-1" source="iCJWKHJC1zr3cfGlK3Lu-55" target="iCJWKHJC1zr3cfGlK3Lu-54">
          <mxGeometry relative="1" as="geometry">
            <Array as="points">
              <mxPoint x="1173" y="1680" />
            </Array>
          </mxGeometry>
        </mxCell>
        <mxCell id="hV6LNWQUlWXEsu78wSo5-12" value="Consent" style="edgeLabel;html=1;align=center;verticalAlign=middle;resizable=0;points=[];" vertex="1" connectable="0" parent="hV6LNWQUlWXEsu78wSo5-8">
          <mxGeometry x="-0.5103" y="3" relative="1" as="geometry">
            <mxPoint x="10" as="offset" />
          </mxGeometry>
        </mxCell>
      </root>
    </mxGraphModel>
  </diagram>
</mxfile>
